<svg width="417" height="417" viewBox="0 0 417 417" fill="none" xmlns="http://www.w3.org/2000/svg">
<g clip-path="url(#clip0_351_5357)">
<path d="M201.984 6.92285V13.8457H208.5H215.016V8.71465C215.016 5.94551 215.26 2.85059 215.504 1.7918C215.993 0 215.912 0 208.989 0H201.984V6.92285Z" fill="#232323"/>
<path d="M229.35 3.66505C228.128 11.7281 228.047 14.4973 229.106 14.9045C229.676 15.1488 232.608 15.5561 235.54 15.8818L240.915 16.452L241.811 11.2395C243.358 2.36193 243.603 2.76915 236.191 1.9547L229.676 1.14025L229.35 3.66505Z" fill="#232323"/>
<path d="M178.365 2.19904C176.818 2.44337 175.189 2.8506 174.863 3.25782C174.456 3.58361 174.619 6.67853 175.189 10.1807L176.166 16.452L180.727 15.8818C189.442 14.8231 189.034 15.2303 188.464 9.04044C188.22 6.10841 187.894 3.17638 187.65 2.60626C187.406 1.62892 184.473 1.54747 178.365 2.19904Z" fill="#232323"/>
<path d="M153.362 7.57443C150.104 8.47032 147.416 9.61056 147.416 10.0992C147.416 10.5879 148.149 13.6014 149.126 16.7777L150.837 22.5604L156.619 20.9315C159.877 20.0356 162.646 19.2211 162.809 19.0582C163.298 18.5695 160.284 5.70118 159.714 5.78263C159.47 5.86407 156.538 6.67853 153.362 7.57443Z" fill="#232323"/>
<path d="M256.634 7.5744C255.576 10.3435 253.784 18.7324 254.191 19.0582C254.354 19.2211 257.123 20.117 260.381 21.0129L266.245 22.6418L268.281 16.0447C269.421 12.3797 270.236 9.3662 270.154 9.28475C270.073 9.28475 267.141 8.4703 263.639 7.49296L257.286 5.7826L256.634 7.5744Z" fill="#232323"/>
<path d="M127.462 16.5333C124.367 17.9179 121.598 19.1396 121.435 19.3025C121.109 19.5468 124.856 28.8316 126.159 30.7863C126.648 31.6007 127.951 31.3564 132.023 29.646C134.874 28.4244 137.48 27.2027 137.806 26.9583C138.376 26.4697 134.466 15.1488 133.489 14.4158C133.326 14.2529 130.638 15.2302 127.462 16.5333Z" fill="#232323"/>
<path d="M281.557 18.9768C278.299 26.9584 278.217 26.7141 284.57 29.4018C287.665 30.7049 290.271 31.6822 290.353 31.6008C290.516 31.4379 291.9 28.6688 293.529 25.4109L296.543 19.5469L292.633 17.8365C290.434 16.9406 287.584 15.6375 286.118 15.0674L283.511 14.0086L281.557 18.9768Z" fill="#232323"/>
<path d="M102.865 28.9945C100.096 30.542 97.5713 32.1709 97.2455 32.6596C96.7568 33.474 103.11 43.9805 104.168 43.9805C104.576 43.9805 113.942 38.5236 114.675 37.8721C115.001 37.5463 108.811 26.0625 108.322 26.0625C108.078 26.0625 105.634 27.3656 102.865 28.9945Z" fill="#232323"/>
<path d="M306.56 29.8904C305.338 32.0079 303.872 34.6956 303.221 35.673C302.569 36.7318 302.162 37.7091 302.325 37.7906C305.013 39.8267 312.913 43.9804 313.483 43.6546C313.89 43.4103 315.682 40.8855 317.392 38.0349C320.243 33.474 320.487 32.741 319.347 32.0079C318.614 31.6007 315.926 30.0533 313.402 28.5872L308.759 25.981L306.56 29.8904Z" fill="#232323"/>
<path d="M201.088 32.0894C187.161 44.3062 174.863 62.3871 169.813 78.1875C161.588 103.761 171.524 133.245 196.935 158.655L202.066 163.787L201.821 172.42L201.577 181.134L197.505 175.596C190.093 165.497 176.981 156.619 163.298 152.384C152.303 148.963 147.009 148.149 131.779 147.66L116.548 147.172L114.105 149.696L111.58 152.14V164.275C111.58 197.342 121.598 220.88 141.471 234.644C155.153 244.092 175.759 250.037 194.899 250.037C199.215 250.037 201.333 250.363 201.659 251.096C201.821 251.666 201.903 260.869 201.821 271.62L201.577 291.086L197.586 285.629C193.107 279.439 183.741 271.702 175.922 267.629C169.976 264.453 157.189 260.381 148.638 258.833C145.543 258.263 136.747 257.774 129.254 257.774H115.489L113.535 260.055C111.662 262.254 111.58 262.824 111.58 274.308C111.58 306.479 121.598 330.749 140.412 344.025C154.502 354.043 169.569 358.685 191.396 359.825L201.577 360.396L201.821 374.893L201.984 389.309H208.5H215.016L215.179 374.811L215.423 360.396L225.196 359.907C230.572 359.663 236.436 359.174 238.228 358.848C267.955 353.636 285.384 341.907 296.054 319.836C302.406 306.723 305.42 291.656 305.42 273.249C305.42 262.905 305.338 262.254 303.465 260.055L301.511 257.774H287.746C273.412 257.856 267.141 258.589 255.82 261.928C240.019 266.408 227.477 274.634 219.414 285.71L215.423 291.086L215.179 271.62C215.097 260.869 215.179 251.666 215.341 251.096C215.667 250.363 217.785 250.037 222.101 250.037C234.888 250.037 251.096 246.779 262.254 241.974C277.81 235.296 288.235 225.441 295.646 210.536C302.325 197.016 305.42 182.193 305.42 163.216V152.14L303.058 149.778L300.696 147.416H289.782C275.855 147.416 266.408 148.638 256.227 151.651C238.146 157.027 228.291 163.787 216.889 178.854L215.097 181.216V172.338L215.016 163.542L222.59 155.561C234.155 143.344 242.3 130.557 246.698 117.526C255.575 91.0558 245.558 61.3283 218.844 35.1844C209.314 25.8996 208.419 25.7367 201.088 32.0894ZM213.875 49.926C220.228 56.6859 225.604 64.2603 229.513 72.1606C233.911 80.7937 235.377 86.1691 235.947 94.8838C236.843 108.485 231.468 122.657 219.902 137.48L213.794 145.38L208.826 145.624L203.776 145.869L200.355 141.959C191.641 132.023 183.822 117.444 181.542 106.53C179.261 96.024 182.112 81.1195 188.464 69.7172C193.351 60.9211 206.382 44.7949 208.5 44.7949C208.826 44.7949 211.269 47.0754 213.875 49.926ZM146.113 162.565C168.347 166.067 183.659 176.085 191.641 192.374C197.016 203.287 200.355 218.273 200.355 231.468V236.191H194.084C180.564 236.191 164.438 232.119 153.443 226.011C136.665 216.726 126.81 197.342 125.67 171.605L125.181 161.262H131.534C135.036 161.262 141.552 161.832 146.113 162.565ZM291.574 167.94C291.574 176.085 289.782 187.406 287.421 194.654C282.208 210.699 273.738 220.961 260.055 227.884C250.933 232.608 234.4 236.191 222.346 236.191H216.645V229.839C216.645 209.966 223.812 189.849 234.807 178.854C245.395 168.266 264.29 161.669 284.488 161.343L291.574 161.262V167.94ZM146.113 272.516C171.931 276.588 188.302 289.62 195.713 311.936C197.912 318.533 199.541 328.225 200.111 337.428L200.6 346.387L190.093 345.898C177.225 345.328 166.23 342.722 156.456 337.835C137.643 328.55 126.892 308.759 125.67 281.556L125.181 271.213H131.534C135.036 271.213 141.552 271.783 146.113 272.516ZM291.33 281.149C290.515 299.149 284.326 316.659 275.285 326.759C264.942 338.324 243.929 346.143 222.834 346.143H216.4L216.889 336.532C218.436 309.166 228.698 289.62 246.454 280.416C257.612 274.552 270.561 271.539 284.977 271.294L291.819 271.213L291.33 281.149Z" fill="#00AD0C"/>
<path d="M15.3117 42.6773C10.9951 43.8176 6.67852 46.9125 4.07227 50.5775C0.162891 55.9529 0 58.1519 0 97.7343C0 139.027 0.0814453 139.434 5.37539 145.624C9.12187 150.104 13.8457 152.221 21.4201 152.791L27.6914 153.362L27.8543 256.471L28.0986 359.581L30.1348 363.49C33.8813 370.983 40.1525 374.811 48.46 374.893C57.0117 374.893 63.5273 370.739 67.2738 362.839L69.2285 358.767V256.064V153.362L75.2555 152.873C85.0289 152.14 91.3816 148.393 94.9652 141.145C96.4313 138.294 96.5127 135.444 96.757 98.5488C96.9199 72.242 96.757 58.0705 96.1055 56.0344C94.8838 51.7177 88.6939 45.2021 84.0516 43.4103C78.3504 41.2113 72.0791 41.6185 66.9481 44.3877L62.7129 46.6682L59.618 44.9578C52.4508 40.967 43.4104 41.0484 37.3834 45.1207L34.6143 46.9939L31.7637 45.1207C29.076 43.3289 23.1305 41.5371 20.3613 41.6185C19.7098 41.6185 17.4293 42.1072 15.3117 42.6773ZM25.8996 58.3148C27.6914 60.351 27.6914 60.6767 27.6914 82.7484C27.6914 109.544 28.0172 110.766 35.0215 110.766C36.2432 110.766 38.1164 110.033 39.1752 109.218L41.1299 107.671L41.5371 83.5629C41.9443 60.0252 41.9443 59.455 43.7361 57.6633C46.2609 55.2199 50.5775 55.2199 53.3467 57.8261L55.3828 59.6994V81.934C55.3828 104.087 55.7086 106.856 58.2334 109.381C60.4324 111.58 65.5635 111.173 67.5182 108.648C69.1471 106.53 69.2285 105.472 69.2285 84.133C69.2285 59.1293 69.4729 57.9076 74.441 56.1972C76.7215 55.4642 77.6988 55.5457 79.6535 56.523C80.9566 57.1746 82.2598 58.3963 82.5855 59.0478C82.8299 59.7809 83.0742 77.1287 83.0742 97.6529V134.955L80.9566 136.91C79.002 138.701 78.1061 138.864 69.2285 139.109C60.1881 139.353 59.5365 139.516 57.6633 141.47L55.79 143.507L55.5457 250.363L55.3828 357.301L53.3467 359.174C50.5775 361.78 46.2609 361.78 43.7361 359.337L41.9443 357.463L41.7 250.607C41.5371 146.846 41.4557 143.67 39.9082 141.715C38.4422 139.76 37.8721 139.679 28.1801 139.271C18.8953 138.864 17.7551 138.701 16.1262 136.991L14.2529 135.118L14.0086 97.9787C13.8457 65.2377 13.9271 60.6767 15.0674 58.8849C17.6736 54.8941 22.5604 54.6498 25.8996 58.3148Z" fill="#232323"/>
<path d="M360.314 42.7588C328.55 49.6816 310.714 94.8023 325.048 132.023C329.12 142.529 338.079 154.583 345.084 158.9L347.771 160.61V259.648V358.767L349.726 362.839C351.925 367.644 356.893 372.368 361.291 373.915C365.445 375.3 372.694 375.219 376.359 373.671C380.594 371.798 384.585 367.97 386.865 363.49L388.901 359.581L389.146 260.136L389.308 160.692L394.195 156.864C412.357 142.774 421.316 111.091 414.475 85.0289C408.611 62.6314 393.951 46.5867 375.87 42.7588C369.029 41.2928 366.83 41.2928 360.314 42.7588ZM379.046 58.0705C404.702 69.8801 411.38 116.304 390.937 140.819C388.738 143.425 384.666 147.09 381.734 148.882C378.883 150.674 376.277 152.791 375.951 153.524C375.707 154.257 375.463 200.03 375.463 255.168C375.463 334.414 375.218 355.916 374.404 357.545C372.856 360.558 369.517 361.943 366.178 360.803C364.712 360.314 363.083 359.092 362.513 358.115C361.861 356.812 361.536 330.179 361.373 255.087L361.21 153.769L358.604 151.651C357.219 150.429 354.206 148.149 351.925 146.602C344.188 141.226 338.487 131.697 335.392 118.91C333.03 108.974 333.6 93.5807 336.613 84.2144C343.943 61.817 362.431 50.4961 379.046 58.0705Z" fill="#232323"/>
<path d="M99.8518 378.476L96.3496 384.015L102.132 387.435C105.309 389.309 108.159 390.612 108.485 390.286C109.299 389.39 114.919 379.291 114.675 379.128C113.86 378.313 104.576 373.019 104.005 373.019C103.68 373.019 101.806 375.463 99.8518 378.476Z" fill="#232323"/>
<path d="M307.456 375.952C304.768 377.58 302.488 378.965 302.325 379.128C302.162 379.291 307.456 389.634 308.352 390.856C308.678 391.263 319.103 385.318 319.673 384.34C320.243 383.526 313.809 373.02 312.831 373.02C312.587 373.101 310.144 374.404 307.456 375.952Z" fill="#232323"/>
<path d="M123.553 391.345L120.539 397.453L122.331 398.186C123.39 398.593 126.322 399.815 128.846 400.955L133.489 402.991L135.444 397.942C138.62 390.042 138.783 390.286 132.512 387.598C129.417 386.295 126.81 385.236 126.729 385.236C126.647 385.236 125.263 388.005 123.553 391.345Z" fill="#232323"/>
<path d="M284.488 387.598C281.719 388.82 279.194 389.96 279.031 390.204C278.624 390.612 283.022 402.747 283.592 402.747C285.058 402.584 295.646 397.697 295.646 397.127C295.646 395.906 290.597 385.236 290.027 385.318C289.782 385.318 287.257 386.377 284.488 387.598Z" fill="#232323"/>
<path d="M260.217 396.15C257.122 396.964 254.353 397.86 254.19 398.023C254.027 398.105 254.516 401.2 255.331 404.783C256.471 409.914 257.122 411.299 258.018 410.892C258.67 410.647 261.602 409.833 264.452 409.181C270.398 407.634 270.398 407.552 267.792 399.815L265.919 394.521L260.217 396.15Z" fill="#232323"/>
<path d="M150.267 395.987C147.905 402.584 146.846 407.389 147.66 407.715C149.697 408.448 159.959 411.299 160.04 411.055C160.447 410.566 162.891 399.815 162.891 398.838C162.891 398.186 160.936 397.209 158.004 396.394C152.221 394.765 150.755 394.684 150.267 395.987Z" fill="#232323"/>
<path d="M175.189 405.761C173.641 414.638 173.397 414.231 180.808 415.045L187.324 415.86L187.65 413.335C188.871 405.272 188.953 402.503 187.894 402.095C187.324 401.851 184.392 401.444 181.46 401.118L176.084 400.548L175.189 405.761Z" fill="#232323"/>
<path d="M232.689 401.525C230.49 401.933 228.617 402.34 228.454 402.503C228.291 402.666 228.372 405.679 228.617 409.181L229.105 415.534L235.295 415.045C238.716 414.719 241.811 414.149 242.137 413.824C242.544 413.416 242.381 410.321 241.892 406.901C240.752 399.978 241.078 400.141 232.689 401.525Z" fill="#232323"/>
<path d="M201.821 409.426C201.658 412.928 201.658 416.023 201.821 416.348C201.984 416.756 204.998 417 208.581 417H215.016V410.077V403.154H208.581H202.147L201.821 409.426Z" fill="#232323"/>
</g>
<defs>
<clipPath id="clip0_351_5357">
<rect width="417" height="417" fill="white"/>
</clipPath>
</defs>
</svg>
